<svg xmlns="http://www.w3.org/2000/svg" version="1.1" xmlns:xlink="http://www.w3.org/1999/xlink" xmlns:svgjs="http://svgjs.dev/svgjs" width="1440" height="600" preserveAspectRatio="none" viewBox="0 0 1440 600"><g mask="url(&quot;#SvgjsMask1019&quot;)" fill="none"><path d="M1350.52 233.72 a39.33 39.33 0 1 0 78.66 0 a39.33 39.33 0 1 0 -78.66 0z" fill="rgba(83, 35, 99, 1)"></path><path d="M826.74 592.67a51.07 51.07 0 1 0 33.13-96.61z" stroke="rgba(83, 35, 99, 1)"></path><path d="M624.39 256.33L655.05 256.33L655.05 298.56L624.39 298.56z" fill="rgba(215, 74, 105, 1)"></path><path d="M263.44 412.05 a32.5 32.5 0 1 0 65 0 a32.5 32.5 0 1 0 -65 0z" stroke="rgba(215, 74, 105, 1)"></path><path d="M147.73 474.96L195.59 474.96L195.59 514.08L147.73 514.08z" fill="rgba(83, 35, 99, 1)"></path><path d="M1046.27 524.96L1082.67 524.96L1082.67 561.36L1046.27 561.36z" stroke="#d3b714"></path><path d="M1248.08 115.4 a32.01 32.01 0 1 0 64.02 0 a32.01 32.01 0 1 0 -64.02 0z" fill="rgba(215, 74, 105, 1)"></path><path d="M403.26 548.25a18.18 18.18 0 1 0 36-5.12z" stroke="#e73635"></path><path d="M1269.53 116.01a36.86 36.86 0 1 0-34.7 65.04z" fill="#d3b714"></path><path d="M821.6 403.88 a33.8 33.8 0 1 0 67.6 0 a33.8 33.8 0 1 0 -67.6 0z" stroke="rgba(215, 74, 105, 1)"></path><path d="M213.75 267.42a33.21 33.21 0 1 0 37.82-54.6z" stroke="#d3b714"></path><path d="M917.17 66.41L966.35 66.41L966.35 112.02L917.17 112.02z" fill="#e73635"></path><path d="M244.81 428.15L275.76 428.15L275.76 443.25L244.81 443.25z" fill="rgba(83, 35, 99, 1)"></path><path d="M871.49 3.3 a24.58 24.58 0 1 0 49.16 0 a24.58 24.58 0 1 0 -49.16 0z" stroke="#e73635"></path><path d="M1.23 159.08a29.09 29.09 0 1 0 13.57-56.58z" fill="rgba(83, 35, 99, 1)"></path><path d="M367.4 148.65L378.84 148.65L378.84 199.22L367.4 199.22z" stroke="#e73635"></path><path d="M875 39.39a58.42 58.42 0 1 0 107.35 46.12z" stroke="#e73635"></path><path d="M1186.8 446.52L1199.26 446.52L1199.26 458.98L1186.8 458.98z" fill="#e73635"></path><path d="M168.59 286.87a36.5 36.5 0 1 0 65.5-32.22z" fill="rgba(83, 35, 99, 1)"></path><path d="M880.43 241.51L880.97 241.51L880.97 286.24L880.43 286.24z" fill="#d3b714"></path><path d="M575.18 113.12L629.88 113.12L629.88 167.82L575.18 167.82z" stroke="rgba(215, 74, 105, 1)"></path><path d="M791.19 89.33a26.95 26.95 0 1 0 3.78-53.77z" fill="rgba(215, 74, 105, 1)"></path><path d="M254.84 6.3L301.48 6.3L301.48 51.97L254.84 51.97z" fill="rgba(215, 74, 105, 1)"></path><path d="M621.88 444.37 a4.74 4.74 0 1 0 9.48 0 a4.74 4.74 0 1 0 -9.48 0z" fill="#e73635"></path><path d="M63.96 422.9L102.21 422.9L102.21 461.15L63.96 461.15z" fill="rgba(215, 74, 105, 1)"></path><path d="M360.37 433.06L362.69 433.06L362.69 435.38L360.37 435.38z" fill="#e73635"></path><path d="M1173.78 326.94 a23.73 23.73 0 1 0 47.46 0 a23.73 23.73 0 1 0 -47.46 0z" fill="#e73635"></path><path d="M866.9 391.04L870.56 391.04L870.56 446.91L866.9 446.91z" fill="#d3b714"></path><path d="M1101.71 169.34L1151 169.34L1151 218.63L1101.71 218.63z" fill="rgba(83, 35, 99, 1)"></path><path d="M868.7 150.89L893.08 150.89L893.08 201.87L868.7 201.87z" stroke="#e73635"></path></g><defs><mask id="SvgjsMask1019"><rect width="1440" height="600" fill="#ffffff"></rect></mask></defs></svg>