<svg xmlns="http://www.w3.org/2000/svg" version="1.1" xmlns:xlink="http://www.w3.org/1999/xlink" xmlns:svgjs="http://svgjs.dev/svgjs" width="1440" height="650" preserveAspectRatio="none" viewBox="0 0 1440 650"><g clip-path="url(&quot;#SvgjsClipPath4335&quot;)" fill="none"><rect width="1440" height="650" x="0" y="0" fill="rgba(77, 119, 101, 0.13)"></rect><circle r="108.335" cx="-80.23" cy="-100.72" stroke="#3652a3" stroke-opacity="0.66" stroke-width="2"></circle><circle r="108.335" cx="510.56" cy="476.1" stroke="#3652a3" stroke-opacity="0.66" stroke-width="2"></circle><circle r="108.335" cx="952.41" cy="959.03" stroke="#3652a3" stroke-opacity="0.66" stroke-width="2"></circle><circle r="145.67" cx="1024.76" cy="136.41" stroke="#3652a3" stroke-opacity="0.66" stroke-width="2"></circle><circle r="95.19" cx="1061.27" cy="408.47" stroke="#3652a3" stroke-opacity="0.66" stroke-width="2"></circle><circle r="184.42" cx="1398.25" cy="123.95" stroke="#3652a3" stroke-opacity="0.66" stroke-width="2"></circle><circle r="61.445" cx="655.51" cy="295.59" stroke="#3652a3" stroke-opacity="0.66" stroke-width="2"></circle><circle r="119.28" cx="1421.2" cy="102.43" stroke="#3652a3" stroke-opacity="0.66" stroke-width="2"></circle><circle r="173.375" cx="805.89" cy="422.68" stroke="#3652a3" stroke-opacity="0.66" stroke-width="2"></circle><circle r="84.8" cx="539.66" cy="436.5" stroke="#3652a3" stroke-opacity="0.66" stroke-width="2"></circle><circle r="180.88" cx="768.7" cy="418.94" stroke="#3652a3" stroke-opacity="0.66" stroke-width="2"></circle><circle r="199.985" cx="1217.63" cy="72.46" stroke="#3652a3" stroke-opacity="0.66" stroke-width="2"></circle><circle r="87.75" cx="948.08" cy="550.75" stroke="#3652a3" stroke-opacity="0.66" stroke-width="2"></circle><circle r="157.565" cx="978.08" cy="134.37" stroke="#3652a3" stroke-opacity="0.66" stroke-width="2"></circle><circle r="82.205" cx="878.94" cy="57.75" stroke="#3652a3" stroke-opacity="0.66" stroke-width="2"></circle><circle r="147.385" cx="980.24" cy="113.46" stroke="#3652a3" stroke-opacity="0.66" stroke-width="2"></circle><circle r="114.655" cx="1180.71" cy="162.48" stroke="#3652a3" stroke-opacity="0.66" stroke-width="2"></circle><circle r="110.915" cx="1025.08" cy="468.29" stroke="#3652a3" stroke-opacity="0.66" stroke-width="2"></circle><circle r="158.815" cx="320.69" cy="384.34" stroke="#3652a3" stroke-opacity="0.66" stroke-width="2"></circle><circle r="149.855" cx="947.56" cy="176.66" stroke="#3652a3" stroke-opacity="0.66" stroke-width="2"></circle><circle r="82.74" cx="646.69" cy="449.65" stroke="#3652a3" stroke-opacity="0.66" stroke-width="2"></circle><circle r="149.73" cx="1257.91" cy="327.63" stroke="#3652a3" stroke-opacity="0.66" stroke-width="2"></circle><circle r="93.855" cx="714.44" cy="478.7" stroke="#3652a3" stroke-opacity="0.66" stroke-width="2"></circle><circle r="81.25" cx="732.14" cy="68.01" stroke="#3652a3" stroke-opacity="0.66" stroke-width="2"></circle><circle r="80.35" cx="822.7" cy="490.09" stroke="#3652a3" stroke-opacity="0.66" stroke-width="2"></circle><circle r="150.315" cx="149.68" cy="557.51" stroke="#3652a3" stroke-opacity="0.66" stroke-width="2"></circle><circle r="171.875" cx="402.05" cy="450.88" stroke="#3652a3" stroke-opacity="0.66" stroke-width="2"></circle><circle r="158.79" cx="1182.76" cy="24.74" stroke="#3652a3" stroke-opacity="0.66" stroke-width="2"></circle><circle r="194.795" cx="425.19" cy="459.16" stroke="#3652a3" stroke-opacity="0.66" stroke-width="2"></circle><circle r="93.725" cx="832.92" cy="86.45" stroke="#3652a3" stroke-opacity="0.66" stroke-width="2"></circle><circle r="79.065" cx="1243.93" cy="574.43" stroke="#3652a3" stroke-opacity="0.66" stroke-width="2"></circle><circle r="162.875" cx="663.95" cy="422.64" stroke="#3652a3" stroke-opacity="0.66" stroke-width="2"></circle><circle r="194.68" cx="89.47" cy="130.06" stroke="#3652a3" stroke-opacity="0.66" stroke-width="2"></circle><circle r="56.815" cx="651.86" cy="26.6" stroke="#3652a3" stroke-opacity="0.66" stroke-width="2"></circle><circle r="154.86" cx="996.32" cy="334.5" stroke="#3652a3" stroke-opacity="0.66" stroke-width="2"></circle><circle r="117.015" cx="1203.64" cy="449.03" stroke="#3652a3" stroke-opacity="0.66" stroke-width="2"></circle><circle r="75.815" cx="1346.2" cy="590.26" stroke="#3652a3" stroke-opacity="0.66" stroke-width="2"></circle><circle r="142.97" cx="1223.48" cy="88.97" stroke="#3652a3" stroke-opacity="0.66" stroke-width="2"></circle></g><defs><clipPath id="SvgjsClipPath4335"><rect width="1440" height="650" x="0" y="0"></rect></clipPath></defs></svg>